<svg width="32" height="32" viewBox="0 0 48 48" fill="none" xmlns="http://www.w3.org/2000/svg">
<path transform="scale(0.99) translate(0.3,0.3)" d="
    M12.25 4
    C9.90279 4 8 5.90279 8 8.25
    V39.75C8 42.0972 9.90279 44 12.25 44
    H35.75C38.0972 44 40 42.0972 40 39.75
    V18.4142C40 17.8175 39.7629 17.2452 39.341 16.8232
    L27.1768 4.65901
    C26.7548 4.23705 26.1825 4 25.5858 4
    H12.25Z" fill="#fff"/>
<path d="M12.25 4C9.90279 4 8 5.90279 8 8.25V39.75C8 42.0972 9.90279 44 12.25 44H35.75C38.0972 44 40 42.0972 40 39.75V18.4142C40 17.8175 39.7629 17.2452 39.341 16.8232L27.1768 4.65901C26.7548 4.23705 26.1825 4 25.5858 4H12.25ZM10.5 8.25C10.5 7.2835 11.2835 6.5 12.25 6.5H24V15.25C24 17.3211 25.6789 19 27.75 19H37.5V39.75C37.5 40.7165 36.7165 41.5 35.75 41.5H12.25C11.2835 41.5 10.5 40.7165 10.5 39.75V8.25ZM35.4822 16.5H27.75C27.0596 16.5 26.5 15.9404 26.5 15.25V7.51777L35.4822 16.5Z" fill="#212121"/>

<g
     transform="translate(0,16.2)">
<path d="
    M 9.25 4
    C 6.90279 4 5 5.90279 5 8.25
    V 19.75
    C 5 22.0972 6.90279 24 9.25 24
    H 38.75
    C 41.0972 24 43 22.0972 43 19.75
    V 8.25
    C 43 5.90279 41.0972 4 38.75 4
    Z" fill="#6ba539"/>
<g
     transform="scale(0.09) translate(15,55)"
     id="layer3"><g
     transform="translate(0,-852.36218)"
     id="layer1">
    <g
       transform="matrix(0.3684661,0,0,0.3684661,375.73956,749.20877)"
       id="g3025"
       style="fill:#f5f5f5">
      <path
         d="m -565.74408,805.05553 c -0.44435,-0.71898 4.89054,-6.54765 13.95809,-15.25 l 14.67735,-14.08621 -0.0171,-28.62756 c -0.0138,-23.15317 0.24711,-28.84683 1.3646,-29.77427 1.95532,-1.62277 104.29383,-1.61234 106.24963,0.0108 1.87962,1.55995 2.04168,85.81798 0.16866,87.691 -1.70495,1.70495 -135.34797,1.74042 -136.40123,0.0362 z m 174.80123,-0.0362 c -0.89577,-0.89577 -1.2,-12 -1.2,-43.8 0,-31.8 0.30423,-42.90423 1.2,-43.8 0.90301,-0.90301 14.25885,-1.2 53.96482,-1.2 51.68098,0 52.78668,0.0409 53.83148,1.99316 0.7204,1.34596 0.9753,15.64524 0.7852,44.03706 -0.2415,36.07487 -0.4945,42.17844 -1.7815,42.99153 -2.367,1.49537 -105.29659,1.28166 -106.8,-0.22175 z m 146.05,0.54136 c -0.9732,-0.39555 -1.25,-10.20757 -1.25,-44.3177 0,-39.02621 0.1727,-43.87596 1.5818,-44.41667 0.87,-0.33385 24.855,-0.60699 53.3,-0.60699 38.8919,0 52.0158,0.2976 52.9182,1.2 0.876,0.87602 1.2126,9.04301 1.2467,30.25 l 0.047,29.05 14.4624,13.47286 c 7.9542,7.41007 14.3083,13.93507 14.12,14.5 -0.3506,1.05219 -133.8822,1.90226 -136.4258,0.8685 z m -648.55772,-114.7009 c -0.28694,-0.74774 1.87821,-8.73524 4.81144,-17.75 2.93322,-9.01476 9.22397,-28.54047 13.97944,-43.39047 4.75546,-14.85 10.8273,-33.75 13.49296,-42 2.66567,-8.25 9.2017,-28.5 14.52452,-45 5.32282,-16.5 14.11049,-43.5 19.52816,-60 7.89633,-24.04902 25.16756,-77.31613 33.55863,-103.5 0.79316,-2.475 1.86899,-5.175 2.39074,-6 0.83167,-1.31504 13.90541,-1.5325 106.02559,-1.76359 71.88373,-0.18032 105.69599,0.0677 107.0366,0.78519 1.85644,0.99354 1.95964,2.22564 1.95964,23.39695 0,22.33057 0.002,22.34866 2.25,22.95116 1.2375,0.33164 29.925,0.61093 63.75,0.62066 64.95391,0.0187 72.21851,0.43311 85.0481,4.85204 13.61054,4.6879 23.8234,13.08227 29.1842,23.9877 l 3.2677,6.64746 0.5,-17.15871 c 0.275,-9.43729 0.73344,-17.39068 1.01876,-17.67421 0.79849,-0.79347 145.70604,-1.23922 146.50204,-0.45065 0.3853,0.3817 4.0622,12.7567 8.1709,27.5 12.0301,43.16741 22.2203,78.55137 22.7846,79.1156 1.0202,1.02028 1.6507,-0.7394 6.6026,-18.42995 2.7527,-9.83381 8.6072,-30.57887 13.01,-46.10015 4.4029,-15.52127 8.6759,-30.79549 9.4956,-33.9427 0.8198,-3.14721 1.9787,-6.31049 2.5754,-7.0295 0.8566,-1.03209 9.0063,-1.31943 38.7125,-1.36493 20.6952,-0.0317 39.4276,-0.37646 41.6276,-0.76615 l 3.999997,-0.70852 0.2691,-22.43666 c 0.1969,-16.41463 0.5995,-22.65044 1.5,-23.23315 1.8602,-1.20371 211.419713,-0.51171 212.622013,0.70211 0.5447,0.55 4.205,10.9 8.134,23 3.929,12.1 15.464,47.65 25.6334,79 10.1694,31.35 20.2968,62.4 22.5053,69 2.2086,6.6 5.2817,16.05 6.8291,21 1.5475,4.95 11.211,35.03766 21.4745,66.86148 10.2636,31.82381 18.4213,58.48631 18.1282,59.25 -0.4475,1.16628 -11.5417,1.38607 -69.3142,1.37321 -37.8298,-0.008 -69.389403,-0.40058 -70.132403,-0.87147 -0.7654,-0.48502 -4.84731,-15.10849 -9.41641,-33.73469 -4.4359,-18.08319 -8.553,-33.21434 -9.149,-33.62477 -0.596,-0.41043 -10.0836,-0.63543 -21.0836,-0.5 l -20,0.24624 -0.2637,33.44947 c -0.199,25.23216 -0.5675,33.64237 -1.5,34.23469 -0.68,0.43187 -35.9088,0.79211 -78.2863,0.80053 -58.611697,0.0117 -77.337197,-0.27185 -78.249997,-1.18469 -0.9079,-0.90794 -1.2,-16.53333 -1.2,-64.2 0,-36.30815 -0.3727,-62.5975 -0.8797,-62.05 -0.7189,0.77645 -28.7343,98.04297 -33.8287,117.45 -0.7941,3.025 -2.0949,6.5125 -2.8907,7.75 l -1.447,2.25 -33.4418,0 c -31.356,0 -33.5027,-0.11389 -34.419,-1.82599 -1.0655,-1.99092 -4.7485,-15.21836 -22.6016,-81.17401 -6.4761,-23.925 -12.1611,-43.9275 -12.6331,-44.45 -0.7587,-0.83967 -1.4095,82.27642 -0.8778,112.09812 0.1201,6.73358 -0.2466,11.98044 -0.9261,13.25 l -1.1249,2.10188 -110.9296,0 c -109.63084,0 -110.94207,-0.0232 -111.99209,-1.98522 -0.70615,-1.31944 -1.07624,-18.17149 -1.10356,-50.25 -0.0443,-51.96491 -0.17777,-53.42634 -5.22256,-57.1673 -2.4547,-1.82028 -3.99533,-2.05456 -11.94403,-1.8163 -5.0192,0.15045 -9.22753,0.37526 -9.35185,0.49958 -0.12432,0.12431 -0.46501,24.64438 -0.75708,54.48903 -0.29208,29.84464 -0.80461,54.70562 -1.13896,55.2466 -0.96755,1.56553 -155.15949,1.32719 -156.1289,-0.24134 -0.41638,-0.67372 -0.90702,-15.63622 -1.09031,-33.25 -0.18329,-17.61378 -0.53005,-32.58755 -0.77057,-33.27505 -0.33023,-0.9439 -5.34779,-1.25 -20.49014,-1.25 -19.84375,0 -20.06286,0.0235 -21.01508,2.25 -0.52924,1.2375 -4.35872,16.17092 -8.50996,33.18537 -4.15124,17.01446 -8.03868,31.52696 -8.63876,32.25 -1.64602,1.98334 -139.3925,1.9392 -140.15387,-0.0449 z m 501.08106,-159.32597 -0.27334,-17.8145 -2.41928,4.87584 c -5.33684,10.75592 -18.46384,21.14167 -32.33072,25.57922 -2.0625,0.66003 -3.73514,1.50265 -3.71699,1.87249 0.0182,0.36985 4.03459,2.57762 8.9254,4.90616 12.4249,5.91555 19.77615,12.90671 25.30071,24.06141 l 4.24088,8.5628 0.27334,-17.11445 c 0.15033,-9.41295 0.15033,-25.13099 0,-34.92897 z m 439.060457,19.15599 c 0.1836,-0.16759 -1.4768,-6.97952 -3.6897,-15.1376 -2.2129,-8.15809 -5.192,-19.55789 -6.6203,-25.33289 -1.4282,-5.775 -3.6694,-14.1 -4.9804,-18.5 -1.3109,-4.4 -3.8157,-13.625 -5.5662,-20.5 -1.7505,-6.875 -3.5727,-13.175 -4.0495,-14 -1.2069,-2.0884 -1.3916,10.86866 -1.0434,73.2001 l 0.1157,20.70009 5.75,0.29991 c 5.9052,0.308 19.4877,-0.18543 20.0838,-0.72961 z M -694.14285,503.71932 c 0,-28.18528 -0.37343,-47.5 -0.91837,-47.5 -0.5051,0 -1.58247,2.8125 -2.39416,6.25 -0.81168,3.4375 -3.61102,14.35 -6.22075,24.25 -2.60973,9.9 -5.0954,19.575 -5.52371,21.5 -0.42831,1.925 -3.0657,11.58711 -5.86088,21.47136 -2.79517,9.88424 -5.08213,18.77174 -5.08213,19.75 0,1.61364 1.20596,1.77864 13,1.77864 l 13,0 0,-47.5 z m 177.2069,14.45932 c 5.86277,-1.62828 8.08379,-5.66683 8.60788,-15.65194 0.84927,-16.18081 -3.40466,-20.72156 -18.83585,-20.10581 l -7.47893,0.29843 -0.27515,16.96328 c -0.15133,9.3298 -0.0529,17.5423 0.21862,18.25 0.60994,1.58949 12.34118,1.75197 17.76343,0.24604 z m -19.0069,-125.15932 c -0.87761,-0.87761 -1.2,-8.91402 -1.2,-29.91311 l 0,-28.71311 -14.64739,-13.94389 c -8.87048,-8.44443 -14.36879,-14.39469 -13.94099,-15.08689 1.04159,-1.68533 134.70191,-1.62947 136.38838,0.057 0.89577,0.89577 1.2,12 1.2,43.8 0,31.8 -0.30423,42.90423 -1.2,43.8 -0.90262,0.90262 -14.11111,1.2 -53.3,1.2 -39.18889,0 -52.39738,-0.29738 -53.3,-1.2 z m 145,0 c -0.89577,-0.89577 -1.2,-12 -1.2,-43.8 0,-31.8 0.30423,-42.90423 1.2,-43.8 0.90301,-0.90301 14.25885,-1.2 53.96482,-1.2 51.14358,0 52.79658,0.0594 53.79998,1.93426 1.1157,2.08476 1.5195,83.63999 0.4282,86.48395 -0.543,1.41495 -6.2174,1.58179 -53.79999,1.58179 -40.03901,0 -53.48976,-0.29675 -54.39301,-1.2 z m 146.0394,0.36909 c -0.9895,-0.62814 -1.2046,-10.25058 -1,-44.73469 l 0.2606,-43.9344 67.943,-0.25705 c 47.4103,-0.17937 68.2623,0.0675 69,0.81687 0.7466,0.75857 0.029,1.97388 -2.443,4.1388 -1.925,1.68569 -8.5625,8.02629 -14.75,14.09023 l -11.25,11.02534 0,28.6429 c 0,20.94449 -0.3225,28.96544 -1.2,29.84291 -1.3935,1.39354 -104.3849,1.75027 -106.5606,0.36909 z"
         id="path3027"
         style="fill:#fff" />
    </g>
    </g>
  </g>
</g>
<!--
<path d="
    M 12.25 4
    C 9.90279 4 8 5.90279 8 8.25
    V 39.75
    C 8 42.0972 9.90279 44 12.25 44
    H 35.75
    C 38.0972 44 40 42.0972 40 39.75
    V 8.25
    C 40 5.90279 38.0972 4 35.75 4
    Z" fill="#6ba539"/>
-->
</svg>
